<?xml version="1.0" encoding="UTF-8"?>
<svg width="88px" height="88px" viewBox="0 0 88 88" version="1.1" xmlns="http://www.w3.org/2000/svg" xmlns:xlink="http://www.w3.org/1999/xlink">
    <!-- Generator: Sketch 58 (84663) - https://sketch.com -->
    <title>Group 24</title>
    <desc>Created with Sketch.</desc>
    <defs>
        <circle id="path-1" cx="32" cy="32" r="32"></circle>
        <filter x="-32.8%" y="-23.4%" width="165.6%" height="165.6%" filterUnits="objectBoundingBox" id="filter-2">
            <feOffset dx="0" dy="6" in="SourceAlpha" result="shadowOffsetOuter1"></feOffset>
            <feGaussianBlur stdDeviation="6" in="shadowOffsetOuter1" result="shadowBlurOuter1"></feGaussianBlur>
            <feColorMatrix values="0 0 0 0 0.819607843   0 0 0 0 0.931909451   0 0 0 0 1  0 0 0 1 0" type="matrix" in="shadowBlurOuter1"></feColorMatrix>
        </filter>
    </defs>
    <g id="Why-EnableHR?" stroke="none" stroke-width="1" fill="none" fill-rule="evenodd">
        <g id="Desktop---Why-EnableHR?" transform="translate(-1060.000000, -2698.000000)">
            <g id="Block" transform="translate(1040.000000, 2672.000000)">
                <g id="Group-24" transform="translate(32.000000, 32.000000)">
                    <g id="Oval">
                        <use fill="black" fill-opacity="1" filter="url(#filter-2)" xlink:href="#path-1"></use>
                        <use fill="#D1EEFF" fill-rule="evenodd" xlink:href="#path-1"></use>
                    </g>
                    <g id="Group-6" transform="translate(14.000000, 10.000000)" fill="#020A2C" fill-rule="nonzero" opacity="0.6">
                        <path d="M18,2.5 C25.4558441,2.5 31.5,8.54415588 31.5,16 C31.5,21.7233841 26.1554566,30.728945 21.4014032,34.1344368 L22.6324555,34.5441518 C23.4491398,34.8163799 24,35.5806576 24,36.4415184 L24,41.5584816 C24,42.4193424 23.4491398,43.1836201 22.6324555,43.4558482 L18.6324555,44.7891815 C18.2219219,44.926026 17.7780781,44.926026 17.3675445,44.7891815 L13.3675445,43.4558482 C12.5508602,43.1836201 12,42.4193424 12,41.5584816 L12,36.4415184 C12,35.5806576 12.5508602,34.8163799 13.3675445,34.5441518 L14.5984197,34.13431 C9.84441069,30.7287215 4.5,21.7233131 4.5,16 C4.5,8.54415588 10.5441559,2.5 18,2.5 Z M14,38.1331851 L14,41.5584816 L17,42.5581851 L17,39.3111851 L14,38.1331851 Z M22,38.1531851 L19,39.3151851 L19,42.5581851 L22,41.5584816 L22,38.1531851 Z M18,35.1081851 L14.628,36.2321851 L18.0025531,37.5565679 L21.399,36.2411851 L18,35.1081851 Z M18,17 C15.8829893,17 14.0527515,19.3041654 14.0011196,22.2711723 L14.0017366,22.4316622 L14.0017366,22.4316622 L14,22.4 C14,25.3550199 17.0028961,31 18,31 C18.9971039,31 22,25.3550199 22,22.4 C22,19.3711313 20.1475537,17 18,17 Z M26.4691472,18.0051373 C24.7745555,18.0657599 23.9568919,19.4103272 24.0084817,22.5613888 L24.0084817,22.5613888 L23.996,22.561 L23.9931249,22.7049449 C23.8837447,25.1853509 22.484176,28.6158823 20.8683369,30.821609 C23.2944497,28.5068204 26.1260462,24.1803215 27.5618889,20.3191381 C27.7543574,18.9164722 27.2991697,18.2081536 26.4691472,18.0051373 Z M9.53946843,18.0051373 C8.70208692,18.2099535 8.24621624,18.9290719 8.45290041,20.3570198 C9.84816848,24.0902293 12.5416559,28.2505913 14.9082489,30.604089 L15.131,30.821 L14.9312127,30.540155 C13.3702626,28.2866547 12.0592153,24.9490804 12.0019499,22.5606808 L12.000134,22.5613888 L12,22.4 L12,22.4 L12.0023668,22.2407912 C11.9940946,19.3188249 11.1754303,18.0636625 9.53946843,18.0051373 Z M18,5.5 C12.2010101,5.5 7.5,10.2010101 7.5,16 C7.5,16.2634595 7.51567031,16.5377678 7.54587393,16.8213614 C7.98728275,16.4242588 8.55951983,16.1555154 9.25200819,16.0213166 L9.44774744,16.0030668 C11.1499326,16.0124063 12.3757749,16.7344462 13.1239269,18.0774431 C14.2017965,16.2219497 15.9643978,15 18,15 C20.0385185,15 21.8032534,16.2254535 22.8813412,18.0862121 C23.6279552,16.7373279 24.8552897,16.012425 26.5608682,16.0030668 L26.5608682,16.0030668 L26.7566075,16.0213166 C27.4447479,16.1546728 28.0141423,16.4208894 28.4539061,16.8140264 C28.4845885,16.5332184 28.5,16.2612744 28.5,16 C28.5,10.2010101 23.7989899,5.5 18,5.5 Z" id="Combined-Shape" transform="translate(18.000000, 23.695907) rotate(12.000000) translate(-18.000000, -23.695907) "></path>
                    </g>
                </g>
            </g>
        </g>
    </g>
</svg>