<?xml version="1.0" encoding="UTF-8"?>
<svg width="88px" height="88px" viewBox="0 0 88 88" version="1.1" xmlns="http://www.w3.org/2000/svg" xmlns:xlink="http://www.w3.org/1999/xlink">
    <!-- Generator: Sketch 58 (84663) - https://sketch.com -->
    <title>Group 17</title>
    <desc>Created with Sketch.</desc>
    <defs>
        <circle id="path-1" cx="32" cy="32" r="32"></circle>
        <filter x="-32.8%" y="-23.4%" width="165.6%" height="165.6%" filterUnits="objectBoundingBox" id="filter-2">
            <feOffset dx="0" dy="6" in="SourceAlpha" result="shadowOffsetOuter1"></feOffset>
            <feGaussianBlur stdDeviation="6" in="shadowOffsetOuter1" result="shadowBlurOuter1"></feGaussianBlur>
            <feColorMatrix values="0 0 0 0 0.819607843   0 0 0 0 0.931909451   0 0 0 0 1  0 0 0 1 0" type="matrix" in="shadowBlurOuter1"></feColorMatrix>
        </filter>
    </defs>
    <g id="Why-EnableHR?" stroke="none" stroke-width="1" fill="none" fill-rule="evenodd">
        <g id="Desktop---Why-EnableHR?" transform="translate(-640.000000, -806.000000)">
            <g id="Block" transform="translate(620.000000, 780.000000)">
                <g id="Group-17" transform="translate(32.000000, 32.000000)">
                    <g id="Oval">
                        <use fill="black" fill-opacity="1" filter="url(#filter-2)" xlink:href="#path-1"></use>
                        <use fill="#D1EEFF" fill-rule="evenodd" xlink:href="#path-1"></use>
                    </g>
                    <g id="Group-2" opacity="0.6" transform="translate(16.000000, 16.000000)">
                        <path d="M27.719057,30.2581641 C27.7182971,30.2611085 27.7175897,30.2640088 27.7169336,30.2668635 C27.718712,30.2591257 27.7203982,30.248776 27.7219082,30.2359292 Z M27.6862389,29.5102102 C27.6541642,29.2536929 27.6012833,28.9256846 27.5180576,28.4453981 C27.5152056,28.4289406 27.5152056,28.4289406 27.5123472,28.4124501 C27.1081521,26.0806059 27.0669403,25.4358215 27.7276282,24.5290857 C29.5198521,22.0694162 30.5,19.1105947 30.5,16 C30.5,7.99187113 24.0081289,1.5 16,1.5 C7.99187113,1.5 1.5,7.99187113 1.5,16 C1.5,24.0081289 7.99187113,30.5 16,30.5 C18.4647262,30.5 20.8371194,29.8855765 22.9499032,28.7293459 C23.963598,28.1745969 24.5557809,28.3272446 26.7869737,29.1788473 C26.7928272,29.1810815 26.7928272,29.1810815 26.7986759,29.1833138 C27.1888996,29.33225 27.4667895,29.4353929 27.6862389,29.5102102 Z M30.1681308,26.27395 C30.1628443,26.2812286 30.1575519,26.2885037 30.1522537,26.295775 C30.1662714,26.2765369 30.1785746,26.2585242 30.1893534,26.2417559 Z M24.0891943,31.4599639 C24.085339,31.459707 24.0817038,31.4595193 24.078292,31.4593997 C24.086837,31.4596994 24.0964175,31.4595455 24.1070256,31.4587997 Z" id="Oval" stroke="#020A2C" stroke-width="3"></path>
                        <path d="M9.54692971,11.454088 C9.75712467,10.7193868 10.9657457,9.66981377 10.9657457,9.66981377 C10.9657457,9.66981377 11.4912332,9.24998454 12.1743668,9.51237781 C12.9100492,9.72229242 13.3304391,10.4569936 13.8559265,11.7689599 C14.4339627,13.1334049 14.4339627,13.0809263 14.171219,13.5532342 C13.961024,14.025542 13.1727929,14.8652005 13.1727929,14.8652005 C13.4880853,15.7573376 17.1139485,19.3258861 18.0072771,19.640758 C18.0072771,19.640758 18.848057,18.9060569 19.2684469,18.6436636 C19.7413856,18.3812703 19.7413856,18.433749 21.0551041,18.9585355 C22.4213714,19.483322 23.1045051,19.9031513 23.3672488,20.6378524 C23.5774438,21.3725536 23.1570538,21.8973401 23.1570538,21.8973401 C23.1570538,21.8973401 22.1586277,23.1043492 21.3703966,23.3142638 C17.219046,24.5212728 8.28575991,15.6523803 9.54692971,11.454088" id="Fill-1" fill="#020A2C" transform="translate(16.426103, 16.426103) rotate(10.000000) translate(-16.426103, -16.426103) "></path>
                    </g>
                </g>
            </g>
        </g>
    </g>
</svg>