<?xml version="1.0" encoding="UTF-8"?>
<svg width="88px" height="88px" viewBox="0 0 88 88" version="1.1" xmlns="http://www.w3.org/2000/svg" xmlns:xlink="http://www.w3.org/1999/xlink">
    <!-- Generator: Sketch 58 (84663) - https://sketch.com -->
    <title>Group 23</title>
    <desc>Created with Sketch.</desc>
    <defs>
        <circle id="path-1" cx="32" cy="32" r="32"></circle>
        <filter x="-32.8%" y="-23.4%" width="165.6%" height="165.6%" filterUnits="objectBoundingBox" id="filter-2">
            <feOffset dx="0" dy="6" in="SourceAlpha" result="shadowOffsetOuter1"></feOffset>
            <feGaussianBlur stdDeviation="6" in="shadowOffsetOuter1" result="shadowBlurOuter1"></feGaussianBlur>
            <feColorMatrix values="0 0 0 0 0.778516208   0 0 0 0 0.951568161   0 0 0 0 0.898210476  0 0 0 1 0" type="matrix" in="shadowBlurOuter1"></feColorMatrix>
        </filter>
    </defs>
    <g id="Why-EnableHR?" stroke="none" stroke-width="1" fill="none" fill-rule="evenodd">
        <g id="Desktop---Why-EnableHR?" transform="translate(-640.000000, -2698.000000)">
            <g id="Block" transform="translate(620.000000, 2672.000000)">
                <g id="Group-23" transform="translate(32.000000, 32.000000)">
                    <g id="Oval">
                        <use fill="black" fill-opacity="1" filter="url(#filter-2)" xlink:href="#path-1"></use>
                        <use fill="#C7F3E5" fill-rule="evenodd" xlink:href="#path-1"></use>
                    </g>
                    <g id="Group-9" opacity="0.61" transform="translate(9.567866, 8.000000)">
                        <g id="Group-8" transform="translate(27.387189, 29.448082) rotate(-40.000000) translate(-27.387189, -29.448082) translate(17.887189, 15.948082)">
                            <path d="M11.217846,-0.164163994 L18.113862,12.9382666 C19.0141483,14.6488105 18.3573047,16.7653066 16.6467608,17.6655929 C15.8354805,18.0925825 14.889052,18.1842075 14.0109307,17.9207711 L9.14922434,16.4622592 C9.05550498,16.4341434 8.95559582,16.4341434 8.86187646,16.4622592 L4.00017013,17.9207711 C2.14869516,18.4762136 0.197503027,17.4255717 -0.357939466,15.5740967 C-0.621375862,14.6959754 -0.529750857,13.7495468 -0.102761246,12.9382666 L6.79325484,-0.164163994 C7.43631647,-1.38598109 8.94809938,-1.8551551 10.1699165,-1.21209347 C10.6171125,-0.976727146 10.9824796,-0.611360008 11.217846,-0.164163994 Z" id="Rectangle" stroke="#020A2C" stroke-width="3"></path>
                            <rect id="Rectangle" fill="#020A2C" x="6.75589561" y="15.4939286" width="4" height="11" rx="2"></rect>
                        </g>
                        <path d="M14.0271274,27.0657287 C14.5235177,27.3078344 14.729656,27.9065037 14.4875503,28.4028939 L12.7340658,31.9980701 C12.4919601,32.4944603 11.8932908,32.7005987 11.3969006,32.458493 C10.9005103,32.2163873 10.694372,31.617718 10.9364777,31.1213278 L12.6899622,27.5261516 C12.9320679,27.0297614 13.5307372,26.823623 14.0271274,27.0657287 Z M8.87207203,20.6066585 C8.99630907,21.1447882 8.66078275,21.6817426 8.12265302,21.8059796 L4.22517276,22.7057838 C3.68704303,22.8300209 3.15008868,22.4944946 3.02585164,21.9563648 C2.9016146,21.4182351 3.23714092,20.8812808 3.77527065,20.7570437 L7.67275091,19.8572395 C8.21088064,19.7330025 8.74783499,20.0685288 8.87207203,20.6066585 Z M30.2398922,8.8184163 C30.5874562,9.24762217 30.5212724,9.8773186 30.0920666,10.2248827 L26.9834827,12.7421642 C26.5542769,13.0897283 25.9245804,13.0235445 25.5770164,12.5943386 C25.2294523,12.1651328 25.2956361,11.5354364 25.724842,11.1878723 L28.8334258,8.67059073 C29.2626317,8.32302668 29.8923281,8.38921044 30.2398922,8.8184163 Z M7.43769567,8.67059073 L10.5462795,11.1878723 C10.9754854,11.5354364 11.0416691,12.1651328 10.6941051,12.5943386 C10.346541,13.0235445 9.7168446,13.0897283 9.28763874,12.7421642 L6.17905489,10.2248827 C5.74984903,9.8773186 5.68366527,9.24762217 6.03122932,8.8184163 C6.37879338,8.38921044 7.00848981,8.32302668 7.43769567,8.67059073 Z M18.1355607,3 C18.6878455,3 19.1355607,3.44771525 19.1355607,4 L19.1355607,8 C19.1355607,8.55228475 18.6878455,9 18.1355607,9 C17.583276,9 17.1355607,8.55228475 17.1355607,8 L17.1355607,4 C17.1355607,3.44771525 17.583276,3 18.1355607,3 Z" id="Combined-Shape" fill="#020A2C" transform="translate(16.731390, 17.779963) rotate(11.000000) translate(-16.731390, -17.779963) "></path>
                    </g>
                </g>
            </g>
        </g>
    </g>
</svg>